<svg xmlns="http://www.w3.org/2000/svg" style="display:none">
  <symbol id="dashboard" viewBox="0 0 24 24">
    <rect x="3" y="3" width="7" height="7" rx="1" fill="none" stroke="currentColor" stroke-width="2"/>
    <rect x="14" y="3" width="7" height="7" rx="1" fill="none" stroke="currentColor" stroke-width="2"/>
    <rect x="3" y="14" width="7" height="7" rx="1" fill="none" stroke="currentColor" stroke-width="2"/>
    <rect x="14" y="14" width="7" height="7" rx="1" fill="none" stroke="currentColor" stroke-width="2"/>
  </symbol>

  <symbol id="home" viewBox="0 0 24 24">
    <path d="M3 11.5L12 4l9 7.5" fill="none" stroke="currentColor" stroke-width="2" stroke-linecap="round" stroke-linejoin="round"/>
    <path d="M5 10.5V20h14v-9.5" fill="none" stroke="currentColor" stroke-width="2" stroke-linecap="round" stroke-linejoin="round"/>
  </symbol>

  <symbol id="user" viewBox="0 0 24 24">
    <circle cx="12" cy="8" r="4" fill="none" stroke="currentColor" stroke-width="2"/>
    <path d="M4 20a8 8 0 0 1 16 0" fill="none" stroke="currentColor" stroke-width="2" stroke-linecap="round"/>
  </symbol>

  <symbol id="users" viewBox="0 0 24 24">
    <circle cx="9" cy="9" r="3.5" fill="none" stroke="currentColor" stroke-width="2"/>
    <circle cx="17" cy="8" r="3" fill="none" stroke="currentColor" stroke-width="2"/>
    <path d="M3 20a6 6 0 0 1 12 0" fill="none" stroke="currentColor" stroke-width="2" stroke-linecap="round"/>
    <path d="M14 20a5 5 0 0 1 7 0" fill="none" stroke="currentColor" stroke-width="2" stroke-linecap="round"/>
  </symbol>

  <symbol id="settings" viewBox="0 0 24 24">
    <circle cx="12" cy="12" r="3" fill="none" stroke="currentColor" stroke-width="2"/>
    <path d="M19.4 15a1 1 0 0 0 .2 1.1l.1.1a2 2 0 0 1 0 2.8 2 2 0 0 1-2.8 0l-.1-.1a1 1 0 0 0-1.1-.2 1 1 0 0 0-.6.9V20a2 2 0 1 1-4 0v-.2a1 1 0 0 0-.6-.9 1 1 0 0 0-1.1.2l-.1.1a2 2 0 1 1-2.8-2.8l.1-.1a1 1 0 0 0 .2-1.1 1 1 0 0 0-.9-.6H4a2 2 0 1 1 0-4h.2a1 1 0 0 0 .9-.6 1 1 0 0 0-.2-1.1l-.1-.1a2 2 0 1 1 2.8-2.8l.1.1a1 1 0 0 0 1.1.2h.1a1 1 0 0 0 .6-.9V4a2 2 0 1 1 4 0v.2a1 1 0 0 0 .6.9h.1a1 1 0 0 0 1.1-.2l.1-.1a2 2 0 1 1 2.8 2.8l-.1.1a1 1 0 0 0-.2 1.1v.1a1 1 0 0 0 .9.6H20a2 2 0 1 1 0 4h-.2a1 1 0 0 0-.9.6z" fill="none" stroke="currentColor" stroke-width="1.6" stroke-linecap="round" stroke-linejoin="round"/>
  </symbol>

  <symbol id="search" viewBox="0 0 24 24">
    <circle cx="11" cy="11" r="7" fill="none" stroke="currentColor" stroke-width="2"/>
    <line x1="16.65" y1="16.65" x2="21" y2="21" stroke="currentColor" stroke-width="2" stroke-linecap="round"/>
  </symbol>

  <symbol id="bell" viewBox="0 0 24 24">
    <path d="M18 8a6 6 0 0 0-12 0c0 7-3 7-3 7h18s-3 0-3-7" fill="none" stroke="currentColor" stroke-width="2" stroke-linecap="round" stroke-linejoin="round"/>
    <path d="M10.3 19a2 2 0 0 0 3.4 0" fill="none" stroke="currentColor" stroke-width="2" stroke-linecap="round"/>
  </symbol>

  <symbol id="plus" viewBox="0 0 24 24">
    <line x1="12" y1="5" x2="12" y2="19" stroke="currentColor" stroke-width="2" stroke-linecap="round"/>
    <line x1="5" y1="12" x2="19" y2="12" stroke="currentColor" stroke-width="2" stroke-linecap="round"/>
  </symbol>

  <symbol id="minus" viewBox="0 0 24 24">
    <line x1="5" y1="12" x2="19" y2="12" stroke="currentColor" stroke-width="2" stroke-linecap="round"/>
  </symbol>

  <symbol id="check" viewBox="0 0 24 24">
    <polyline points="20 6 9 17 4 12" fill="none" stroke="currentColor" stroke-width="2" stroke-linecap="round" stroke-linejoin="round"/>
  </symbol>

  <symbol id="x" viewBox="0 0 24 24">
    <line x1="18" y1="6" x2="6" y2="18" stroke="currentColor" stroke-width="2" stroke-linecap="round"/>
    <line x1="6" y1="6" x2="18" y2="18" stroke="currentColor" stroke-width="2" stroke-linecap="round"/>
  </symbol>

  <symbol id="edit" viewBox="0 0 24 24">
    <path d="M3 21v-3l11-11 3 3L6 21H3z" fill="none" stroke="currentColor" stroke-width="2" stroke-linejoin="round"/>
    <path d="M14 7l3 3" fill="none" stroke="currentColor" stroke-width="2" stroke-linecap="round"/>
  </symbol>

  <symbol id="trash" viewBox="0 0 24 24">
    <path d="M3 6h18" stroke="currentColor" stroke-width="2" stroke-linecap="round" stroke-linejoin="round"/>
    <path d="M8 6v14a2 2 0 0 0 2 2h4a2 2 0 0 0 2-2V6" stroke="currentColor" stroke-width="2" stroke-linecap="round" stroke-linejoin="round"/>
    <path d="M10 11v6M14 11v6" stroke="currentColor" stroke-width="2" stroke-linecap="round" stroke-linejoin="round"/>
  </symbol>

  <symbol id="eye" viewBox="0 0 24 24">
    <path d="M1 12s4-7 11-7 11 7 11 7-4 7-11 7-11-7-11-7z" fill="none" stroke="currentColor" stroke-width="2" stroke-linecap="round" stroke-linejoin="round"/>
    <circle cx="12" cy="12" r="3" fill="none" stroke="currentColor" stroke-width="2"/>
  </symbol>

  <symbol id="eye-off" viewBox="0 0 24 24">
    <path d="M2 2l20 20" fill="none" stroke="currentColor" stroke-width="2" stroke-linecap="round"/>
    <path d="M10.6 10.6a2 2 0 1 0 2.8 2.8" fill="none" stroke="currentColor" stroke-width="2" stroke-linecap="round"/>
    <path d="M7 7.5C4.8 9 3.3 11 3.3 11s3.6 6 8.7 6c1.6 0 3-.4 4.3-1.1" fill="none" stroke="currentColor" stroke-width="2" stroke-linecap="round"/>
    <path d="M17.7 14.7c1.9-1.5 3-3.7 3-3.7s-3.6-6-8.7-6c-.9 0-1.8.1-2.6.4" fill="none" stroke="currentColor" stroke-width="2" stroke-linecap="round"/>
  </symbol>

  <symbol id="logout" viewBox="0 0 24 24">
    <path d="M9 21H5a2 2 0 0 1-2-2V5a2 2 0 0 1 2-2h4" fill="none" stroke="currentColor" stroke-width="2" stroke-linecap="round"/>
    <polyline points="16 17 21 12 16 7" fill="none" stroke="currentColor" stroke-width="2" stroke-linecap="round" stroke-linejoin="round"/>
    <line x1="21" y1="12" x2="9" y2="12" stroke="currentColor" stroke-width="2" stroke-linecap="round"/>
  </symbol>

  <symbol id="menu" viewBox="0 0 24 24">
    <line x1="3" y1="6" x2="21" y2="6" stroke="currentColor" stroke-width="2" stroke-linecap="round"/>
    <line x1="3" y1="12" x2="21" y2="12" stroke="currentColor" stroke-width="2" stroke-linecap="round"/>
    <line x1="3" y1="18" x2="21" y2="18" stroke="currentColor" stroke-width="2" stroke-linecap="round"/>
  </symbol>

  <symbol id="chevron-down" viewBox="0 0 24 24">
    <polyline points="6 9 12 15 18 9" fill="none" stroke="currentColor" stroke-width="2" stroke-linecap="round" stroke-linejoin="round"/>
  </symbol>

  <symbol id="chevron-up" viewBox="0 0 24 24">
    <polyline points="18 15 12 9 6 15" fill="none" stroke="currentColor" stroke-width="2" stroke-linecap="round" stroke-linejoin="round"/>
  </symbol>

  <symbol id="arrow-left" viewBox="0 0 24 24">
    <line x1="19" y1="12" x2="5" y2="12" stroke="currentColor" stroke-width="2" stroke-linecap="round"/>
    <polyline points="12 19 5 12 12 5" fill="none" stroke="currentColor" stroke-width="2" stroke-linecap="round" stroke-linejoin="round"/>
  </symbol>

  <symbol id="arrow-right" viewBox="0 0 24 24">
    <line x1="5" y1="12" x2="19" y2="12" stroke="currentColor" stroke-width="2" stroke-linecap="round"/>
    <polyline points="12 5 19 12 12 19" fill="none" stroke="currentColor" stroke-width="2" stroke-linecap="round" stroke-linejoin="round"/>
  </symbol>

  <symbol id="external-link" viewBox="0 0 24 24">
    <path d="M14 3h7v7" fill="none" stroke="currentColor" stroke-width="2" stroke-linecap="round" stroke-linejoin="round"/>
    <path d="M10 14L21 3" fill="none" stroke="currentColor" stroke-width="2" stroke-linecap="round"/>
    <path d="M21 14v6a1 1 0 0 1-1 1H4a1 1 0 0 1-1-1V4a1 1 0 0 1 1-1h6" fill="none" stroke="currentColor" stroke-width="2" stroke-linecap="round" stroke-linejoin="round"/>
  </symbol>

  <symbol id="clock" viewBox="0 0 24 24">
    <circle cx="12" cy="12" r="9" fill="none" stroke="currentColor" stroke-width="2"/>
    <polyline points="12 7 12 12 15 14" fill="none" stroke="currentColor" stroke-width="2" stroke-linecap="round" stroke-linejoin="round"/>
  </symbol>

  <symbol id="calendar" viewBox="0 0 24 24">
    <rect x="3" y="5" width="18" height="16" rx="2" fill="none" stroke="currentColor" stroke-width="2"/>
    <line x1="3" y1="10" x2="21" y2="10" stroke="currentColor" stroke-width="2"/>
    <line x1="8" y1="3" x2="8" y2="7" stroke="currentColor" stroke-width="2" stroke-linecap="round"/>
    <line x1="16" y1="3" x2="16" y2="7" stroke="currentColor" stroke-width="2" stroke-linecap="round"/>
  </symbol>

  <symbol id="file" viewBox="0 0 24 24">
    <path d="M14 2H7a2 2 0 0 0-2 2v16a2 2 0 0 0 2 2h10a2 2 0 0 0 2-2V7z" fill="none" stroke="currentColor" stroke-width="2" stroke-linejoin="round"/>
    <polyline points="14 2 14 8 20 8" fill="none" stroke="currentColor" stroke-width="2" stroke-linejoin="round"/>
  </symbol>

  <symbol id="chart-bar" viewBox="0 0 24 24">
    <line x1="4" y1="20" x2="20" y2="20" stroke="currentColor" stroke-width="2" stroke-linecap="round"/>
    <rect x="6" y="11" width="3" height="7" fill="none" stroke="currentColor" stroke-width="2"/>
    <rect x="11" y="7" width="3" height="11" fill="none" stroke="currentColor" stroke-width="2"/>
    <rect x="16" y="4" width="3" height="14" fill="none" stroke="currentColor" stroke-width="2"/>
  </symbol>

  <symbol id="chart-line" viewBox="0 0 24 24">
    <polyline points="3 17 9 11 13 15 21 7" fill="none" stroke="currentColor" stroke-width="2" stroke-linecap="round" stroke-linejoin="round"/>
    <polyline points="21 7 21 13 15 13" fill="none" stroke="currentColor" stroke-width="2" stroke-linecap="round" stroke-linejoin="round"/>
  </symbol>

  <symbol id="wallet" viewBox="0 0 24 24">
    <path d="M3 7a2 2 0 0 1 2-2h13a2 2 0 0 1 2 2v2H3z" fill="none" stroke="currentColor" stroke-width="2"/>
    <rect x="3" y="9" width="18" height="11" rx="2" fill="none" stroke="currentColor" stroke-width="2"/>
    <circle cx="16" cy="14.5" r="1" fill="currentColor"/>
  </symbol>

  <symbol id="sparkles" viewBox="0 0 24 24">
    <path d="M12 3l1.5 4.5L18 9l-4.5 1.5L12 15l-1.5-4.5L6 9l4.5-1.5z" fill="none" stroke="currentColor" stroke-width="2" stroke-linejoin="round"/>
    <path d="M19 2l.8 2.2L22 5l-2.2.8L19 8l-.8-2.2L16 5l2.2-.8z" fill="none" stroke="currentColor" stroke-width="1.6" stroke-linejoin="round"/>
    <path d="M5 14l.8 2.2L8 17l-2.2.8L5 20l-.8-2.2L2 17l2.2-.8z" fill="none" stroke="currentColor" stroke-width="1.6" stroke-linejoin="round"/>
  </symbol>

  <symbol id="message" viewBox="0 0 24 24">
    <path d="M4 5h16a2 2 0 0 1 2 2v9a2 2 0 0 1-2 2H9l-5 4v-4H4a2 2 0 0 1-2-2V7a2 2 0 0 1 2-2z" fill="none" stroke="currentColor" stroke-width="2" stroke-linejoin="round"/>
  </symbol>

  <symbol id="link" viewBox="0 0 24 24">
    <path d="M10 13a5 5 0 0 1 0-7l1.2-1.2a5 5 0 0 1 7 7L17 13" fill="none" stroke="currentColor" stroke-width="2" stroke-linecap="round"/>
    <path d="M14 11a5 5 0 0 1 0 7l-1.2 1.2a5 5 0 0 1-7-7L7 11" fill="none" stroke="currentColor" stroke-width="2" stroke-linecap="round"/>
  </symbol>

  <symbol id="info" viewBox="0 0 24 24">
    <circle cx="12" cy="12" r="9" fill="none" stroke="currentColor" stroke-width="2"/>
    <line x1="12" y1="11" x2="12" y2="16" stroke="currentColor" stroke-width="2" stroke-linecap="round"/>
    <circle cx="12" cy="8" r="1" fill="currentColor"/>
  </symbol>

  <symbol id="warning" viewBox="0 0 24 24">
    <path d="M12 3L2.5 20h19L12 3z" fill="none" stroke="currentColor" stroke-width="2" stroke-linejoin="round"/>
    <line x1="12" y1="9" x2="12" y2="14" stroke="currentColor" stroke-width="2" stroke-linecap="round"/>
    <circle cx="12" cy="17" r="1" fill="currentColor"/>
  </symbol>

  <symbol id="check-circle" viewBox="0 0 24 24">
    <circle cx="12" cy="12" r="9" fill="none" stroke="currentColor" stroke-width="2"/>
    <polyline points="8 12 11 15 16 9" fill="none" stroke="currentColor" stroke-width="2" stroke-linecap="round" stroke-linejoin="round"/>
  </symbol>
</svg>
